<?xml version="1.0" encoding="UTF-8"?>
<svg version="1.1" xmlns="http://www.w3.org/2000/svg" width="500" height="500">
<path d="M0 0 C165 0 330 0 500 0 C500 165 500 330 500 500 C335 500 170 500 0 500 C0 335 0 170 0 0 Z " fill="#000000" transform="translate(0,0)"/>
<path d="M0 0 C7.59 0 15.18 0 23 0 C22.67 2.64 22.34 5.28 22 8 C22.66698156 10.43201133 22.66698156 10.43201133 24.04296875 12.40234375 C24.50880371 13.15241699 24.97463867 13.90249023 25.45458984 14.67529297 C25.9645752 15.44244629 26.47456055 16.20959961 27 17 C27.50869629 17.79164551 28.01739258 18.58329102 28.54150391 19.39892578 C30.10598901 21.80519038 31.70289192 24.18622561 33.3125 26.5625 C33.86228516 27.38041016 34.41207031 28.19832031 34.97851562 29.04101562 C36.31581884 31.02952736 37.65633151 33.01578642 39 35 C43.18952304 30.96560239 46.37611106 26.5098924 49.6875 21.75 C50.57791992 20.51830078 50.57791992 20.51830078 51.48632812 19.26171875 C55.06570639 14.11100568 57.14320377 10.35551985 57 4 C56.01 2.68 55.02 1.36 54 0 C58.95 0 63.9 0 69 0 C68.11828125 1.010625 67.2365625 2.02125 66.328125 3.0625 C61.16779433 9.08792713 56.59771312 15.54138094 52 22 C51.50757813 22.68884277 51.01515625 23.37768555 50.5078125 24.08740234 C49.07236874 26.11002994 47.6579289 28.14565035 46.25 30.1875 C45.8075293 30.81076172 45.36505859 31.43402344 44.90917969 32.07617188 C42.62883216 35.20515425 42.62883216 35.20515425 42.20874023 38.8972168 C43.1698013 41.45124917 44.45239681 43.51049572 45.95703125 45.7890625 C46.5694165 46.72250488 47.18180176 47.65594727 47.81274414 48.61767578 C48.80262329 50.10630127 48.80262329 50.10630127 49.8125 51.625 C50.82268188 53.15423096 50.82268188 53.15423096 51.85327148 54.71435547 C53.2340284 56.80317197 54.61692895 58.89057303 56.00195312 60.9765625 C57.83753705 63.75416163 59.65000798 66.54500799 61.453125 69.34375 C62.48938412 70.93762954 63.52583086 72.53138711 64.5625 74.125 C65.02567627 74.85154785 65.48885254 75.5780957 65.96606445 76.32666016 C68.8617155 80.7358399 71.83875088 83.76143607 76 87 C76 87.33 76 87.66 76 88 C67.75 88 59.5 88 51 88 C51.66 86.68 52.32 85.36 53 84 C53.11945133 76.80535471 49.05365968 71.74645349 45.1875 65.9375 C44.24293945 64.48633789 44.24293945 64.48633789 43.27929688 63.00585938 C41.53270504 60.32824062 39.77074033 57.66169224 38 55 C37.55736816 54.33371582 37.11473633 53.66743164 36.65869141 52.98095703 C35.77453928 51.65258568 34.88771993 50.32598972 34 49 C29.95367979 52.79566321 27.18061774 57.06733848 24.171875 61.69921875 C22.72543649 63.8974931 21.23534169 66.06766067 19.703125 68.20703125 C18.97609375 69.23183594 18.2490625 70.25664062 17.5 71.3125 C16.49453125 72.69888672 16.49453125 72.69888672 15.46875 74.11328125 C13.6653021 77.6578238 13.66826691 80.06988437 14 84 C14.33 84.99 14.66 85.98 15 87 C15.66 87.33 16.32 87.66 17 88 C11.39 88 5.78 88 0 88 C1.65 86.35 3.3 84.7 5 83 C10.83127541 76.88089329 15.65834455 70.39807451 20.25 63.3125 C20.848125 62.40177734 21.44625 61.49105469 22.0625 60.55273438 C23.20862614 58.80692056 24.3489569 57.05728313 25.48242188 55.30322266 C26.40583845 53.90175677 27.35436734 52.51589512 28.34570312 51.16162109 C30.48784712 48.4188448 30.48784712 48.4188448 30.7565918 45.10205078 C29.90265355 42.72954083 28.79855687 40.86724417 27.41015625 38.76171875 C26.87793457 37.94856201 26.34571289 37.13540527 25.79736328 36.29760742 C24.93860596 35.00560425 24.93860596 35.00560425 24.0625 33.6875 C23.47710449 32.79973877 22.89170898 31.91197754 22.28857422 30.99731445 C21.09547045 29.18945837 19.90016314 27.38305456 18.70263672 25.578125 C17.17183576 23.26019296 15.66132277 20.93093421 14.16015625 18.59375 C9.95181232 12.08417862 5.76179057 6.2607653 0 1 C0 0.67 0 0.34 0 0 Z " fill="#F9F9F9" transform="translate(238,197)"/>
<path d="M0 0 C18.48 0 36.96 0 56 0 C59 12 59 12 58 16 C57.525625 15.13375 57.05125 14.2675 56.5625 13.375 C52.54299804 7.38125503 46.2586749 3.97727272 39.33691406 2.38867188 C34.75342044 1.62635242 30.13679934 1.52154953 25.5 1.375 C22.035 1.25125 18.57 1.1275 15 1 C15 14.53 15 28.06 15 42 C31.39388345 42.49196019 31.39388345 42.49196019 38 38 C38.99 36.68 39.98 35.36 41 34 C41 39.94 41 45.88 41 52 C39.35 50.35 37.7 48.7 36 47 C30.20547875 43.77447329 30.20547875 43.77447329 15 44 C15 57.86 15 71.72 15 86 C19.104375 85.9175 23.20875 85.835 27.4375 85.75 C28.71294678 85.73420898 29.98839355 85.71841797 31.30249023 85.70214844 C38.39219636 85.49208307 43.81435246 84.51540432 50 81 C51.093125 80.38125 52.18625 79.7625 53.3125 79.125 C56.43760403 76.65398751 57.98631871 74.40776834 60 71 C61 74 61 74 57 88 C37.53 88 18.06 88 -2 88 C-0.68 86.68 0.64 85.36 2 84 C3.17616812 80.47149565 3.13428106 77.67080731 3.14526367 73.94580078 C3.14862228 73.23162994 3.1519809 72.51745911 3.15544128 71.78164673 C3.16494403 69.41951765 3.1668941 67.05745951 3.16796875 64.6953125 C3.17118197 63.05247976 3.17454609 61.40964732 3.17805481 59.76681519 C3.1840445 56.32191301 3.18589489 52.87703592 3.18530273 49.43212891 C3.18520116 45.02149486 3.19884934 40.61102197 3.21607494 36.2004261 C3.22720316 32.80662296 3.22922168 29.41285867 3.22869301 26.01903915 C3.22987204 24.39317139 3.23428951 22.76730258 3.24202538 21.14145279 C3.25184122 18.86518378 3.24894097 16.58926311 3.24291992 14.31298828 C3.24434494 13.0185379 3.24576996 11.72408752 3.24723816 10.39041138 C2.95354006 6.36288834 1.7784571 3.55691419 0 0 Z " fill="#FDFDFD" transform="translate(324,197)"/>
<path d="M0 0 C6.6 0 13.2 0 20 0 C18.02 2.97 18.02 2.97 16 6 C15.61218074 8.83708283 15.43475508 11.28670974 15.45410156 14.11669922 C15.44376389 14.90761459 15.43342621 15.69852997 15.42277527 16.51341248 C15.3934307 19.11071402 15.3918499 21.70723347 15.390625 24.3046875 C15.37563767 26.11216714 15.35890936 27.91963312 15.34051514 29.7270813 C15.29689135 34.47156414 15.27685357 39.21586226 15.26177979 43.96051025 C15.24219077 48.80711772 15.20022276 53.65352621 15.16015625 58.5 C15.08490801 67.99993855 15.03458393 77.49983245 15 87 C15.66581589 86.98336807 16.33163177 86.96673615 17.0176239 86.94960022 C25.80610065 86.82107085 25.80610065 86.82107085 29.83203125 88.43359375 C30.64003174 88.7486084 31.44803223 89.06362305 32.28051758 89.38818359 C33.11607178 89.73445801 33.95162598 90.08073242 34.8125 90.4375 C35.70541748 90.79150879 36.59833496 91.14551758 37.51831055 91.51025391 C45.04263077 94.52261173 52.49586854 97.723198 59.89575195 101.02905273 C68.39087775 104.77524603 75.64359569 106.34789187 84.9375 106.3125 C85.77990234 106.32861328 86.62230469 106.34472656 87.49023438 106.36132812 C93.49471678 106.36595051 98.43191647 105.2247082 104 103 C104 103.66 104 104.32 104 105 C101.58618654 106.31799019 99.16922404 107.62950918 96.75 108.9375 C96.06808594 109.31068359 95.38617188 109.68386719 94.68359375 110.06835938 C94.01972656 110.42607422 93.35585937 110.78378906 92.671875 111.15234375 C92.0644043 111.48226318 91.45693359 111.81218262 90.83105469 112.15209961 C83.11151675 115.72676031 73.57366768 114.91348232 65.75 112.1875 C59.45059043 109.52148628 53.91063469 105.87727981 48.24072266 102.09838867 C32.05614356 91.31538081 18.11288937 88.54287345 -1 88 C-0.525625 87.566875 -0.05125 87.13375 0.4375 86.6875 C3.64774004 83.22044075 3.15406073 79.10756861 3.16113281 74.67041016 C3.16609772 73.92697861 3.17106262 73.18354706 3.17617798 72.41758728 C3.19078355 69.95806961 3.1975987 67.49861642 3.203125 65.0390625 C3.20887752 63.3289693 3.21463524 61.61887612 3.22039795 59.90878296 C3.23090319 56.32264913 3.23674906 52.73653768 3.24023438 49.15039062 C3.2457199 44.55809077 3.26975108 39.96608728 3.29820633 35.37388039 C3.3168409 31.84110655 3.32203873 28.30840401 3.32357025 24.77558517 C3.32659516 23.08272048 3.33461828 21.38985698 3.34775543 19.69704056 C3.3648343 17.32725793 3.36293153 14.95819832 3.35644531 12.58837891 C3.3656601 11.89106155 3.37487488 11.1937442 3.3843689 10.47529602 C3.34333622 5.68304301 2.65318946 4.42198243 0 0 Z " fill="#F5F5F5" transform="translate(117,197)"/>
<path d="M0 0 C6.6 0 13.2 0 20 0 C19.01 1.65 18.02 3.3 17 5 C16.55770142 7.78489432 16.55770142 7.78489432 16.62768555 10.76489258 C16.62145676 11.899897 16.61522797 13.03490143 16.60881042 14.20429993 C16.61802017 15.42207626 16.62722992 16.6398526 16.63671875 17.89453125 C16.63622025 19.15585373 16.63572174 20.41717621 16.63520813 21.71672058 C16.63754759 24.38413101 16.64568307 27.05074562 16.66381836 29.71801758 C16.68643574 33.11721771 16.68706017 36.51597237 16.68030071 39.91522694 C16.67613043 43.17919456 16.68815523 46.44308503 16.69921875 49.70703125 C16.69830734 50.91873489 16.69739594 52.13043854 16.69645691 53.37886047 C16.7770925 63.06037126 17.72045413 71.26208965 24 79 C31.26429724 84.66615185 38.04509822 84.70487586 47 84 C52.9838313 82.37899307 56.52804582 79.00369867 60 74 C63.89453865 66.60037657 63.15941755 57.3727196 63.16796875 49.23828125 C63.17129715 48.12946091 63.17462555 47.02064056 63.17805481 45.8782196 C63.18309592 43.54601453 63.18546401 41.21380231 63.18530273 38.8815918 C63.18749937 35.31351978 63.2057128 31.74575221 63.22460938 28.17773438 C63.22754185 25.90625105 63.22952762 23.63476627 63.23046875 21.36328125 C63.23765427 20.29862137 63.24483978 19.23396149 63.25224304 18.13703918 C63.2476281 16.64475044 63.2476281 16.64475044 63.24291992 15.12231445 C63.24434494 14.25153763 63.24576996 13.3807608 63.24723816 12.4835968 C62.6402799 6.38648135 60.51122928 4.51122928 56 0 C61.61 0 67.22 0 73 0 C71.47005208 1.7578125 69.94010417 3.515625 68.41015625 5.2734375 C65.83133613 8.43088485 65.87989834 10.53077063 65.88989258 14.54443359 C65.88902397 16.28797623 65.88902397 16.28797623 65.88813782 18.06674194 C65.89024765 19.33120148 65.89235748 20.59566101 65.89453125 21.8984375 C65.88106517 24.57163515 65.86613851 27.24479166 65.84960938 29.91796875 C65.82539792 34.13539595 65.80943937 38.35233765 65.82495117 42.56982422 C65.83442565 45.31475988 65.82785775 48.05877138 65.80387878 50.80361938 C65.78155652 53.38358076 65.78123342 55.96385944 65.80659485 58.54379272 C65.68004021 67.79058796 63.48336742 75.43284929 57.5974884 82.74154663 C51.07439135 88.85273663 42.53328941 89.47260778 34.03051758 89.42602539 C25.88400282 89.1488156 17.8140881 86.99027259 12 81 C4.89484433 72.22304299 4.55961838 62.10790799 4.55859375 51.2578125 C4.53841595 49.29328129 4.51822796 47.32875013 4.49742985 45.36422539 C4.47194286 42.64162749 4.45927457 39.91903504 4.44702148 37.1963501 C4.42499998 32.4056839 4.39399678 27.61515213 4.34571838 22.82467651 C4.32137198 20.28058237 4.30650485 17.73637603 4.30210876 15.19216919 C4.29192215 14.04352386 4.28173553 12.89487854 4.27124023 11.71142578 C4.26696518 10.70234161 4.26269012 9.69325745 4.25828552 8.65359497 C3.88076437 4.7749872 2.73233524 2.73233524 0 0 Z " fill="#F9F9F9" transform="translate(155,197)"/>
<path d="M0 0 C6.55639471 1.5643008 12.59343154 4.00530814 18.77197266 6.67480469 C20.89538522 7.57521751 23.01908305 8.47495788 25.14306641 9.37402344 C26.16770996 9.81020996 27.19235352 10.24639648 28.24804688 10.69580078 C32.09657163 12.32738859 35.95836629 13.92250988 39.83447266 15.48730469 C40.95208984 15.94234375 42.06970703 16.39738281 43.22119141 16.86621094 C49.13364347 19.00542924 54.66739195 19.13794326 60.89697266 19.17480469 C62.18087891 19.20574219 62.18087891 19.20574219 63.49072266 19.23730469 C69.56532931 19.27412049 74.51661203 18.19130687 80.14697266 15.92480469 C80.14697266 16.58480469 80.14697266 17.24480469 80.14697266 17.92480469 C77.7331592 19.24279487 75.3161967 20.55431387 72.89697266 21.86230469 C72.21505859 22.23548828 71.53314453 22.60867188 70.83056641 22.99316406 C69.83476562 23.52973633 69.83476562 23.52973633 68.81884766 24.07714844 C68.21137695 24.40706787 67.60390625 24.7369873 66.97802734 25.0769043 C59.2584894 28.651565 49.72064034 27.83828701 41.89697266 25.11230469 C35.59756309 22.44629096 30.05760734 18.8020845 24.38769531 15.02319336 C15.11745823 8.84687956 6.06361507 4.37460239 -4.85302734 1.92480469 C-1.85302734 -0.07519531 -1.85302734 -0.07519531 0 0 Z " fill="#EDEDED" transform="translate(140.85302734375,284.0751953125)"/>
<path d="M0 0 C5.61 0 11.22 0 17 0 C15.47005208 1.7578125 13.94010417 3.515625 12.41015625 5.2734375 C9.83133613 8.43088485 9.87989834 10.53077063 9.88989258 14.54443359 C9.88931351 15.70679535 9.88873444 16.8691571 9.88813782 18.06674194 C9.89024765 19.33120148 9.89235748 20.59566101 9.89453125 21.8984375 C9.88106517 24.57163515 9.86613851 27.24479166 9.84960938 29.91796875 C9.82539792 34.13539595 9.80943937 38.35233765 9.82495117 42.56982422 C9.83442565 45.31475988 9.82785775 48.05877138 9.80387878 50.80361938 C9.78155652 53.38358076 9.78123342 55.96385944 9.80659485 58.54379272 C9.6807631 67.73776968 7.59455078 75.72817298 1.42048645 82.81234741 C-1.12310192 85.07559736 -3.58886407 86.60640739 -7 87 C-6.875 85.25 -6.875 85.25 -6 83 C-4.02053408 81.63636792 -2.0180755 80.30581356 0 79 C7.82056146 70.52772509 7.15652881 60.12066934 7.16796875 49.23828125 C7.17129715 48.12946091 7.17462555 47.02064056 7.17805481 45.8782196 C7.18309592 43.54601453 7.18546401 41.21380231 7.18530273 38.8815918 C7.18749937 35.31351978 7.2057128 31.74575221 7.22460938 28.17773438 C7.22754185 25.90625105 7.22952762 23.63476627 7.23046875 21.36328125 C7.23765427 20.29862137 7.24483978 19.23396149 7.25224304 18.13703918 C7.24916641 17.14218002 7.24608978 16.14732086 7.24291992 15.12231445 C7.24434494 14.25153763 7.24576996 13.3807608 7.24723816 12.4835968 C6.6402799 6.38648135 4.51122928 4.51122928 0 0 Z " fill="#F7F7F7" transform="translate(211,197)"/>
<path d="M0 0 C0.66 0.99 1.32 1.98 2 3 C1.09121094 4.25490234 1.09121094 4.25490234 0.1640625 5.53515625 C-2.09053139 8.65937921 -4.32202322 11.7994509 -6.54492188 14.94628906 C-7.51006653 16.3085033 -8.48008134 17.66728084 -9.45507812 19.02246094 C-10.86162155 20.98301024 -12.24525558 22.95803001 -13.625 24.9375 C-14.06247559 25.53892822 -14.49995117 26.14035645 -14.95068359 26.76000977 C-17.85202271 30.98592402 -18.52542306 33.92294692 -18 39 C-17.67 39.99 -17.34 40.98 -17 42 C-16.34 42.33 -15.68 42.66 -15 43 C-20.61 43 -26.22 43 -32 43 C-29.525 40.525 -29.525 40.525 -27 38 C-21.205976 31.91388823 -16.38490772 25.47707085 -11.8125 18.4375 C-11.22275391 17.54353516 -10.63300781 16.64957031 -10.02539062 15.72851562 C-6.60777762 10.53176705 -3.27589159 5.28707927 0 0 Z " fill="#D5D5D5" transform="translate(270,242)"/>
<path d="M0 0 C1.29065057 3.8719517 0.22324098 6.44232601 -0.9375 10.1875 C-1.13279297 10.84169922 -1.32808594 11.49589844 -1.52929688 12.16992188 C-2.01182563 13.78227407 -2.50490205 15.39146289 -3 17 C-17.03332368 17.13698472 -30.98675352 16.75573446 -45 16 C-45 15.67 -45 15.34 -45 15 C-44.25951416 14.9906543 -43.51902832 14.98130859 -42.75610352 14.97167969 C-39.35759348 14.91755399 -35.96039798 14.83398888 -32.5625 14.75 C-31.39783203 14.73582031 -30.23316406 14.72164063 -29.03320312 14.70703125 C-21.81598642 14.50372937 -16.30077951 13.58083569 -10 10 C-8.3603125 9.071875 -8.3603125 9.071875 -6.6875 8.125 C-3.56239597 5.65398751 -2.01368129 3.40776834 0 0 Z " fill="#E1E1E1" transform="translate(384,268)"/>
<path d="M0 0 C4.95 0 9.9 0 15 0 C14.11828125 1.010625 13.2365625 2.02125 12.328125 3.0625 C9.30164995 6.59634425 6.48665646 10.23906226 3.75 14 C3.2861792 14.63429932 2.8223584 15.26859863 2.34448242 15.92211914 C-2.64927211 22.80617927 -7.34638253 29.8832965 -12 37 C-12.66 36.34 -13.32 35.68 -14 35 C-13.52054932 34.34515625 -13.04109863 33.6903125 -12.54711914 33.015625 C-10.36923355 30.02192424 -8.21584727 27.01139305 -6.0625 24 C-4.93038086 22.45505859 -4.93038086 22.45505859 -3.77539062 20.87890625 C1.79809085 13.15283437 1.79809085 13.15283437 3 4 C2.01 2.68 1.02 1.36 0 0 Z " fill="#F3F3F3" transform="translate(292,197)"/>
<path d="M0 0 C4.66666667 0 9.33333333 0 14 0 C14.66 0.99 15.32 1.98 16 3 C16.33 2.01 16.66 1.02 17 0 C17.66 0 18.32 0 19 0 C19 2.64 19 5.28 19 8 C15.125 6.25 15.125 6.25 14 4 C13.67 5.32 13.34 6.64 13 8 C8.66666667 8 4.33333333 8 0 8 C0 5.36 0 2.72 0 0 Z " fill="#E5E5E5" transform="translate(324,302)"/>
<path d="M0 0 C1.2684375 0.0309375 1.2684375 0.0309375 2.5625 0.0625 C4.2501286 0.0625 5.93772274 0.03443423 7.625 0 C10.5625 0.0625 10.5625 0.0625 11.5625 1.0625 C11.6875 4.0625 11.6875 4.0625 11.5625 7.0625 C10.5625 8.0625 10.5625 8.0625 7.625 8.125 C6.1090625 8.0940625 6.1090625 8.0940625 4.5625 8.0625 C3.06192141 8.0625 1.56120638 8.11256468 0.0625 8.1875 C-2.4375 8.0625 -2.4375 8.0625 -4.4375 6.0625 C-3.70977102 0.09512233 -3.70977102 0.09512233 0 0 Z " fill="#CACACA" transform="translate(256.4375,301.9375)"/>
<path d="M0 0 C0.74958984 0.00902344 1.49917969 0.01804688 2.27148438 0.02734375 C4.11862654 0.05087422 5.96560412 0.08674439 7.8125 0.125 C8.34501766 2.03845327 8.86309483 3.9559295 9.375 5.875 C9.66503906 6.94234375 9.95507812 8.0096875 10.25390625 9.109375 C10.78348494 11.96835927 10.79620862 13.44097383 9.8125 16.125 C9.338125 15.25875 8.86375 14.3925 8.375 13.5 C4.63420856 7.9218587 -1.30856568 4.37466017 -7.75 2.75 C-8.884375 2.54375 -10.01875 2.3375 -11.1875 2.125 C-7.39586973 -0.40275351 -4.37875969 -0.09943035 0 0 Z " fill="#EDEDED" transform="translate(372.1875,196.875)"/>
<path d="M0 0 C0.33 0 0.66 0 1 0 C1 5.94 1 11.88 1 18 C-0.65 16.35 -2.3 14.7 -4 13 C-7.7802463 10.27353917 -12.25009341 10.55410076 -16.75 10.375 C-17.54277344 10.33632812 -18.33554687 10.29765625 -19.15234375 10.2578125 C-21.10119416 10.163892 -23.05056451 10.08087178 -25 10 C-25 9.34 -25 8.68 -25 8 C-23.75863281 7.96261719 -22.51726562 7.92523438 -21.23828125 7.88671875 C-19.59632489 7.8210405 -17.95439913 7.7545938 -16.3125 7.6875 C-15.08756836 7.65366211 -15.08756836 7.65366211 -13.83789062 7.61914062 C-9.1262566 7.40931077 -5.82324529 7.04664859 -2 4 C-0.67206394 1.93299345 -0.67206394 1.93299345 0 0 Z " fill="#E2E2E2" transform="translate(364,231)"/>
<path d="M0 0 C1.65 0 3.3 0 5 0 C6.85776765 3.13498292 7.20140476 5.37471432 7 9 C6.34 9 5.68 9 5 9 C5 8.01 5 7.02 5 6 C4.01 6 3.02 6 2 6 C2 6.99 2 7.98 2 9 C-0.64 9 -3.28 9 -6 9 C-6 6.36 -6 3.72 -6 1 C-4.35 1 -2.7 1 -1 1 C-2.32 1.33 -3.64 1.66 -5 2 C-5 2.66 -5 3.32 -5 4 C-3.68 4 -2.36 4 -1 4 C-0.67 2.68 -0.34 1.36 0 0 Z " fill="#ADADAD" transform="translate(276,301)"/>
<path d="M0 0 C1.5440193 2.36144128 2.00522287 3.78063941 1.9375 6.625 C-0.19082908 14.28698468 -3.27630219 20.56522059 -10 25 C-12.375 25.8125 -12.375 25.8125 -14 26 C-13.875 24.25 -13.875 24.25 -13 22 C-11.02053408 20.63636792 -9.0180755 19.30581356 -7 18 C-1.84818575 12.4188679 -0.74573678 7.33307833 0 0 Z " fill="#E7E7E7" transform="translate(218,258)"/>
<path d="M0 0 C2 3 2 3 3 5.625 C3.76047262 8.15139938 3.76047262 8.15139938 6 9 C1.38 9 -3.24 9 -8 9 C-2.25 2.25 -2.25 2.25 0 0 Z " fill="#FAFAFA" transform="translate(249,276)"/>
<path d="M0 0 C1.70840281 1.63412443 2.93453047 2.86906094 4 5 C4.99 5 5.98 5 7 5 C6.34 4.67 5.68 4.34 5 4 C5 2.68 5 1.36 5 0 C6.65 0 8.3 0 10 0 C8.68 0.33 7.36 0.66 6 1 C6 1.66 6 2.32 6 3 C7.32 3 8.64 3 10 3 C10 4.65 10 6.3 10 8 C6.1146983 8.07471734 2.75055095 7.97236506 -1 7 C-1.99 7.495 -1.99 7.495 -3 8 C-1.125 1.125 -1.125 1.125 0 0 Z " fill="#CFCFCF" transform="translate(304,302)"/>
<path d="M0 0 C0.99 0.33 1.98 0.66 3 1 C2.5153125 1.65484375 2.030625 2.3096875 1.53125 2.984375 C-3.52122004 9.86350729 -8.31778693 16.86460615 -13 24 C-13.66 23.34 -14.32 22.68 -15 22 C-10.05 14.74 -5.1 7.48 0 0 Z " fill="#D3D3D3" transform="translate(293,210)"/>
<path d="M0 0 C0.99 0.33 1.98 0.66 3 1 C3 1.66 3 2.32 3 3 C3.45375 2.505 3.9075 2.01 4.375 1.5 C6 0 6 0 8 0 C8 2.64 8 5.28 8 8 C7.34 8 6.68 8 6 8 C5.67 7.34 5.34 6.68 5 6 C4.34 6 3.68 6 3 6 C2.67 6.66 2.34 7.32 2 8 C1.34 8 0.68 8 0 8 C0 5.36 0 2.72 0 0 Z " fill="#C4C4C4" transform="translate(243,302)"/>
<path d="M0 0 C0.66 0 1.32 0 2 0 C2.66 0.99 3.32 1.98 4 3 C4.33 2.01 4.66 1.02 5 0 C5.66 0 6.32 0 7 0 C7 2.64 7 5.28 7 8 C3.125 6.25 3.125 6.25 2 4 C1.34 5.32 0.68 6.64 0 8 C0 5.36 0 2.72 0 0 Z " fill="#CFCFCF" transform="translate(336,302)"/>
<path d="M0 0 C3 1 3 1 4 3 C4.33 2.01 4.66 1.02 5 0 C5.66 0 6.32 0 7 0 C7 2.64 7 5.28 7 8 C6.34 8 5.68 8 5 8 C3.375 6 3.375 6 2 4 C1.34 5.32 0.68 6.64 0 8 C0 5.36 0 2.72 0 0 Z " fill="#D8D8D8" transform="translate(284,302)"/>
<path d="M0 0 C0.33 0.99 0.66 1.98 1 3 C2.32 3 3.64 3 5 3 C5 2.01 5 1.02 5 0 C5.66 0 6.32 0 7 0 C7 2.64 7 5.28 7 8 C6.34 8 5.68 8 5 8 C5 7.01 5 6.02 5 5 C3.68 5 2.36 5 1 5 C0.67 5.99 0.34 6.98 0 8 C0 5.36 0 2.72 0 0 Z " fill="#CFCFCF" transform="translate(316,302)"/>
<path d="M0 0 C2.12494571 3.83146581 2.0966689 5.69768354 1 10 C0.0876519 12.38651055 -0.93097114 14.67602422 -2 17 C-2.66 16.67 -3.32 16.34 -4 16 C-3.71125 15.21625 -3.4225 14.4325 -3.125 13.625 C-1.73239716 9.1377242 -0.85728019 4.614721 0 0 Z " fill="#CACACA" transform="translate(218,258)"/>
<path d="M0 0 C1.67542976 0.28604898 3.34385343 0.61781233 5 1 C3.68 1.33 2.36 1.66 1 2 C1 2.66 1 3.32 1 4 C1.99 4.33 2.98 4.66 4 5 C3.01 5 2.02 5 1 5 C1 6.32 1 7.64 1 9 C0.34 9 -0.32 9 -1 9 C-1.09765625 2.84765625 -1.09765625 2.84765625 -1 1 C-0.67 0.67 -0.34 0.34 0 0 Z " fill="#C2C2C2" transform="translate(296,301)"/>
<path d="M0 0 C0.79148438 0.18175781 1.58296875 0.36351562 2.3984375 0.55078125 C3.19507813 0.71964844 3.99171875 0.88851563 4.8125 1.0625 C5.45960938 1.32675781 6.10671875 1.59101563 6.7734375 1.86328125 C7.1034375 2.85328125 7.4334375 3.84328125 7.7734375 4.86328125 C3.4834375 3.87328125 -0.8065625 2.88328125 -5.2265625 1.86328125 C-2.2265625 -0.13671875 -2.2265625 -0.13671875 0 0 Z " fill="#CACACA" transform="translate(141.2265625,284.13671875)"/>
<path d="M0 0 C0 2.64 0 5.28 0 8 C-0.66 7.67 -1.32 7.34 -2 7 C-2 5.68 -2 4.36 -2 3 C-3.32 3 -4.64 3 -6 3 C-6 2.34 -6 1.68 -6 1 C-3.92446352 0.4465236 -2.15634036 0 0 0 Z " fill="#4B4B4B" transform="translate(316,302)"/>
<path d="M0 0 C1.98 0.495 1.98 0.495 4 1 C3.67 2.32 3.34 3.64 3 5 C1.68 4.67 0.36 4.34 -1 4 C-0.67 2.68 -0.34 1.36 0 0 Z " fill="#121212" transform="translate(329,303)"/>
<path d="M0 0 C0.66 0.99 1.32 1.98 2 3 C0.02 5.64 -1.96 8.28 -4 11 C-5 8 -5 8 -4.00390625 5.95703125 C-3.52824219 5.24933594 -3.05257813 4.54164063 -2.5625 3.8125 C-2.08941406 3.09707031 -1.61632812 2.38164062 -1.12890625 1.64453125 C-0.75636719 1.10183594 -0.38382812 0.55914062 0 0 Z " fill="#DEDEDE" transform="translate(270,242)"/>
<path d="M0 0 C0.33 0 0.66 0 1 0 C1 2.64 1 5.28 1 8 C-2 8 -2 8 -5 6 C-4.360625 5.38125 -3.72125 4.7625 -3.0625 4.125 C-0.96116416 2.17402388 -0.96116416 2.17402388 0 0 Z " fill="#8D8D8D" transform="translate(335,302)"/>
<path d="M0 0 C0 0.66 0 1.32 0 2 C-3.96 3.98 -3.96 3.98 -8 6 C-8.33 5.01 -8.66 4.02 -9 3 C-2.25 0 -2.25 0 0 0 Z " fill="#C6C6C6" transform="translate(221,300)"/>
<path d="M0 0 C0.75 1.625 0.75 1.625 1 4 C-0.8125 7.25 -0.8125 7.25 -3 10 C-3.66 10 -4.32 10 -5 10 C-3.66511872 6.40608886 -2.03977277 3.24509304 0 0 Z " fill="#D1D1D1" transform="translate(264,251)"/>
<path d="M0 0 C0.66 0 1.32 0 2 0 C2.79953138 3.28696233 3.09658936 4.71023192 2 8 C1.34 8 0.68 8 0 8 C0 5.36 0 2.72 0 0 Z " fill="#ADADAD" transform="translate(324,302)"/>
<path d="M0 0 C0.99 0 1.98 0 3 0 C3 1.65 3 3.3 3 5 C1.68 5 0.36 5 -1 5 C-0.67 3.35 -0.34 1.7 0 0 Z " fill="#0D0D0D" transform="translate(255,303)"/>
<path d="M0 0 C1.32 0.33 2.64 0.66 4 1 C4 2.32 4 3.64 4 5 C2.68 5 1.36 5 0 5 C0 3.35 0 1.7 0 0 Z " fill="#0D0D0D" transform="translate(263,303)"/>
</svg>
