<?xml version="1.0" encoding="UTF-8"?>
<svg version="1.1" xmlns="http://www.w3.org/2000/svg" width="500" height="500">
<path d="M0 0 C165 0 330 0 500 0 C500 165 500 330 500 500 C335 500 170 500 0 500 C0 335 0 170 0 0 Z " fill="#FEFCF5" transform="translate(0,0)"/>
<path d="M0 0 C7.59 0 15.18 0 23 0 C22.67 2.64 22.34 5.28 22 8 C22.66698156 10.43201133 22.66698156 10.43201133 24.04296875 12.40234375 C24.50880371 13.15241699 24.97463867 13.90249023 25.45458984 14.67529297 C25.9645752 15.44244629 26.47456055 16.20959961 27 17 C27.50869629 17.79164551 28.01739258 18.58329102 28.54150391 19.39892578 C30.10598901 21.80519038 31.70289192 24.18622561 33.3125 26.5625 C33.86228516 27.38041016 34.41207031 28.19832031 34.97851562 29.04101562 C36.31581884 31.02952736 37.65633151 33.01578642 39 35 C43.18952304 30.96560239 46.37611106 26.5098924 49.6875 21.75 C50.57791992 20.51830078 50.57791992 20.51830078 51.48632812 19.26171875 C55.06570639 14.11100568 57.14320377 10.35551985 57 4 C56.01 2.68 55.02 1.36 54 0 C58.95 0 63.9 0 69 0 C67.35 1.65 65.7 3.3 64 5 C62.42277848 7.04191418 60.9120992 9.07532737 59.4375 11.1875 C59.02201904 11.77901855 58.60653809 12.37053711 58.1784668 12.97998047 C57.27360862 14.27491825 56.3721342 15.57222549 55.47363281 16.87158203 C54.4391237 18.36575871 53.39890026 19.85598743 52.35449219 21.34326172 C50.65981094 23.76111691 48.98413856 26.19117121 47.3125 28.625 C46.50026978 29.77971802 46.50026978 29.77971802 45.67163086 30.95776367 C45.17800049 31.68584229 44.68437012 32.4139209 44.17578125 33.1640625 C43.73145752 33.80811035 43.28713379 34.4521582 42.8293457 35.11572266 C41.84212581 36.95035461 41.84212581 36.95035461 42.16333008 38.90869141 C43.23701063 41.59242282 44.64578032 43.8650115 46.2109375 46.296875 C46.87407959 47.33118652 47.53722168 48.36549805 48.22045898 49.43115234 C48.93145752 50.52637207 49.64245605 51.6215918 50.375 52.75 C51.10188088 53.87826532 51.82852365 55.00668407 52.55493164 56.13525391 C57.17284522 63.28839799 61.8902776 70.36730487 66.81201172 77.31542969 C68.61521885 79.87650648 70.00249381 82.00748142 71 85 C73.00016466 86.20882096 73.00016466 86.20882096 75 87 C75 87.33 75 87.66 75 88 C67.08 88 59.16 88 51 88 C51.66 86.68 52.32 85.36 53 84 C52.95895395 77.35053968 49.86812845 72.96911383 46.3125 67.625 C45.79494141 66.82578125 45.27738281 66.0265625 44.74414062 65.203125 C43.1776241 62.79189906 41.59263514 60.39404332 40 58 C39.42813965 57.13987305 38.8562793 56.27974609 38.26708984 55.39355469 C36.8468688 53.26092774 35.42459028 51.12970985 34 49 C29.06433913 53.67159341 25.53895891 59.20604578 21.75 64.8125 C21.00492187 65.88048828 20.25984375 66.94847656 19.4921875 68.04882812 C18.78835938 69.09103516 18.08453125 70.13324219 17.359375 71.20703125 C16.71452148 72.1503833 16.06966797 73.09373535 15.40527344 74.06567383 C13.67601113 77.67651532 13.53531255 80.03902476 14 84 C14.99 85.32 15.98 86.64 17 88 C11.39 88 5.78 88 0 88 C1.65 86.68 3.3 85.36 5 84 C10.9510121 77.53150859 15.73083792 70.110829 20.51953125 62.76953125 C22.11954624 60.31709557 23.75733599 57.90166537 25.44921875 55.51171875 C26.18785156 54.45597656 26.92648437 53.40023437 27.6875 52.3125 C28.35136719 51.38050781 29.01523437 50.44851562 29.69921875 49.48828125 C31.22021969 47.17342328 31.22021969 47.17342328 30.71142578 45.06176758 C29.98885877 42.96771184 29.13302505 41.37119042 27.91796875 39.5234375 C27.27045654 38.53005371 27.27045654 38.53005371 26.60986328 37.51660156 C26.1404834 36.80987305 25.67110352 36.10314453 25.1875 35.375 C24.70265137 34.63733398 24.21780273 33.89966797 23.71826172 33.13964844 C22.6846789 31.56960739 21.64846726 30.00129432 20.60986328 28.43457031 C18.98790755 25.98171278 17.38155239 23.51918041 15.77734375 21.0546875 C14.72711464 19.45276288 13.67634825 17.85119035 12.625 16.25 C12.13797607 15.50024902 11.65095215 14.75049805 11.14916992 13.97802734 C8.42278271 9.85779982 5.59110894 6.43068139 2 3 C1.34 2.01 0.68 1.02 0 0 Z " fill="#262626" transform="translate(238,197)"/>
<path d="M0 0 C18.48 0 36.96 0 56 0 C59 12 59 12 58 16 C57.443125 15.0925 56.88625 14.185 56.3125 13.25 C51.41804329 6.37130408 45.02113775 3.75342907 37 2 C35.2683761 1.8562677 33.53301667 1.75425068 31.796875 1.68359375 C30.91354492 1.64548584 30.03021484 1.60737793 29.12011719 1.56811523 C28.00797852 1.52501221 26.89583984 1.48190918 25.75 1.4375 C22.2025 1.293125 18.655 1.14875 15 1 C15 14.53 15 28.06 15 42 C30.57751364 42.2036423 30.57751364 42.2036423 38 38 C38.99 36.68 39.98 35.36 41 34 C41 39.94 41 45.88 41 52 C39.35 50.35 37.7 48.7 36 47 C30.20547875 43.77447329 30.20547875 43.77447329 15 44 C15 58.19 15 72.38 15 87 C20.1665625 86.8453125 20.1665625 86.8453125 25.4375 86.6875 C26.50411865 86.66260498 27.5707373 86.63770996 28.66967773 86.61206055 C37.94930182 86.25921334 48.97061245 83.97576934 55.83203125 77.1875 C57.28647962 75.49802367 58.67239976 73.79024881 60 72 C62.4267033 76.85340659 58.49071198 82.78250805 57 88 C37.86 88 18.72 88 -1 88 C0.32 85.69 1.64 83.38 3 81 C3.59074093 77.26745242 3.59074093 77.26745242 3.50170898 73.30810547 C3.50711197 72.57384338 3.51251495 71.8395813 3.51808167 71.08306885 C3.5304996 68.67735387 3.51412891 66.27285182 3.49609375 63.8671875 C3.49624887 62.18523089 3.49773996 60.50327393 3.50050354 58.82131958 C3.5018843 55.30601085 3.48938133 51.79111175 3.46655273 48.27587891 C3.43812502 43.77553693 3.44092152 39.27587276 3.45364285 34.77548027 C3.46060384 31.30614452 3.4528067 27.83696489 3.44038582 24.36764908 C3.43587849 22.70830001 3.43552824 21.04893414 3.43945122 19.38958359 C3.44236876 17.07040888 3.42583325 14.75216267 3.40405273 12.43310547 C3.39864975 11.11519012 3.39324677 9.79727478 3.38768005 8.43942261 C3.18794412 4.52894947 3.18794412 4.52894947 0 0 Z " fill="#232323" transform="translate(324,197)"/>
<path d="M0 0 C6.6 0 13.2 0 20 0 C18.02 2.97 18.02 2.97 16 6 C15.61218074 8.83708283 15.43475508 11.28670974 15.45410156 14.11669922 C15.44376389 14.90761459 15.43342621 15.69852997 15.42277527 16.51341248 C15.3934307 19.11071402 15.3918499 21.70723347 15.390625 24.3046875 C15.37563767 26.11216714 15.35890936 27.91963312 15.34051514 29.7270813 C15.29689135 34.47156414 15.27685357 39.21586226 15.26177979 43.96051025 C15.24219077 48.80711772 15.20022276 53.65352621 15.16015625 58.5 C15.08490801 67.99993855 15.03458393 77.49983245 15 87 C15.66581589 86.98336807 16.33163177 86.96673615 17.0176239 86.94960022 C25.80610065 86.82107085 25.80610065 86.82107085 29.83203125 88.43359375 C30.64019287 88.7486084 31.44835449 89.06362305 32.28100586 89.38818359 C33.11639893 89.73445801 33.95179199 90.08073242 34.8125 90.4375 C35.70396729 90.79150879 36.59543457 91.14551758 37.51391602 91.51025391 C45.08853546 94.54646301 52.5971884 97.75430736 60.0715332 101.02905273 C62.37416216 102.03649529 64.68435231 103.02293347 67 104 C67.96292969 104.40992188 68.92585938 104.81984375 69.91796875 105.2421875 C74.56504053 106.38481351 79.10850431 106.28828511 83.875 106.25 C84.83019531 106.25773437 85.78539062 106.26546875 86.76953125 106.2734375 C92.52431594 106.25764934 97.48232905 105.64356156 103 104 C99.97962345 107.40518414 97.21565305 109.01704748 93 110.6875 C91.96875 111.10386719 90.9375 111.52023437 89.875 111.94921875 C81.17599046 115.12861218 72.70281965 114.9895426 64.078125 111.52734375 C58.08717902 108.55467893 52.53123184 104.86349661 46.921875 101.23535156 C33.98312208 92.91852105 23.43792045 89.14087963 8.125 88.4375 C7.24585937 88.39431641 6.36671875 88.35113281 5.4609375 88.30664062 C3.30744203 88.20130661 1.15373936 88.10022351 -1 88 C-0.54625 87.62875 -0.0925 87.2575 0.375 86.875 C4.13716876 82.53403604 4.25433674 77.30504173 4.2746582 71.78881836 C4.27976913 71.09371658 4.28488007 70.39861481 4.29014587 69.68244934 C4.30396376 67.40149149 4.30309158 65.12083829 4.30078125 62.83984375 C4.30467143 61.2461384 4.30900677 59.65243407 4.31376648 58.05873108 C4.3212111 54.72588736 4.32094944 51.39314961 4.31567383 48.06030273 C4.30987025 43.79426257 4.32683987 39.52865531 4.3500185 35.26268673 C4.36476187 31.97438532 4.36562693 28.68618818 4.36250877 25.39785957 C4.36302131 23.82501935 4.36824643 22.2521732 4.37832069 20.67936516 C4.39068496 18.4798869 4.38389521 16.28125229 4.37231445 14.08178711 C4.37294388 12.83191513 4.3735733 11.58204315 4.3742218 10.29429626 C3.96960328 6.73241587 3.04442233 4.89867165 1 2 C0.67 1.34 0.34 0.68 0 0 Z " fill="#222222" transform="translate(117,197)"/>
<path d="M0 0 C6.27 0 12.54 0 19 0 C18.01 1.65 17.02 3.3 16 5 C15.5444814 7.80353329 15.5444814 7.80353329 15.59594727 10.80908203 C15.58326309 11.95442413 15.57057892 13.09976624 15.55751038 14.27981567 C15.56044601 15.51005463 15.56338165 16.74029358 15.56640625 18.0078125 C15.55854347 19.92241776 15.55854347 19.92241776 15.55052185 21.8757019 C15.5440995 24.57760429 15.54399873 27.27866209 15.55395508 29.98046875 C15.56538256 33.41326449 15.54532679 36.84502194 15.51603794 40.27768135 C15.49306643 43.5836091 15.50015394 46.88930732 15.50390625 50.1953125 C15.49267227 51.41340607 15.48143829 52.63149963 15.46986389 53.88650513 C15.54177487 62.8112631 17.15501541 70.22449015 21.75 77.9375 C27.90610618 83.58059733 33.59243688 84.61905147 41.87890625 84.3125 C47.9016394 83.7094729 52.05358066 82.34184586 56.3125 77.9375 C62.28194692 69.94863193 62.46707127 60.60668543 62.46875 50.984375 C62.47636353 49.769776 62.48397705 48.555177 62.49182129 47.30377197 C62.50256969 44.75234015 62.50549698 42.20086452 62.50097656 39.64941406 C62.49999933 35.74730791 62.54178811 31.84713791 62.5859375 27.9453125 C62.59114147 25.45833741 62.59383274 22.97135553 62.59375 20.484375 C62.61014526 19.32178162 62.62654053 18.15918823 62.64343262 16.96136475 C62.68733859 10.1621187 62.68733859 10.1621187 59.58789062 4.34472656 C58.73388672 3.5709668 57.87988281 2.79720703 57 2 C56.34 1.34 55.68 0.68 55 0 C60.61 0 66.22 0 72 0 C70.47005208 1.7578125 68.94010417 3.515625 67.41015625 5.2734375 C64.87496205 8.37747029 64.87197781 10.43264633 64.8581543 14.37670898 C64.85111984 15.50225693 64.84408539 16.62780487 64.83683777 17.78746033 C64.83059135 19.62323387 64.83059135 19.62323387 64.82421875 21.49609375 C64.80100447 24.08269029 64.7768865 26.66927884 64.75195312 29.25585938 C64.71570513 33.33715714 64.68588151 37.41830897 64.67407227 41.49975586 C64.66193701 45.43631205 64.61822327 49.37226196 64.57421875 53.30859375 C64.57612717 54.5142247 64.57803558 55.71985565 64.58000183 56.96202087 C64.45443599 65.74821766 63.07873412 74.14948945 57.8125 81.4375 C49.65133696 88.87322633 39.50971249 89.66344289 28.96044922 89.17480469 C20.98780464 88.46391882 14.09513155 84.0247283 9 78 C5.47886723 71.9579403 3.88658808 66.18972397 3.84228516 59.22509766 C3.83202301 58.06354156 3.82176086 56.90198547 3.81118774 55.70523071 C3.80388641 54.4541452 3.79658508 53.20305969 3.7890625 51.9140625 C3.76818136 49.94349485 3.7472828 47.9729272 3.72536278 46.00237083 C3.67228493 41.14845919 3.62799666 36.29454381 3.59863281 31.44042969 C3.58170778 28.71530005 3.5569911 25.99045209 3.52377319 23.26547241 C3.49284364 20.70131837 3.47339433 18.13699421 3.46670532 15.57266235 C3.45013885 14.40480194 3.43357239 13.23694153 3.41650391 12.03369141 C3.40841705 11.01095123 3.4003302 9.98821106 3.39199829 8.93447876 C3.07262997 5.33314192 3.07262997 5.33314192 0 0 Z " fill="#272727" transform="translate(156,197)"/>
<path d="M0 0 C2.2283771 0.90351945 4.42808194 1.85689979 6.62646484 2.83105469 C8.27809882 3.54493865 9.93046989 4.25711919 11.58349609 4.96777344 C12.43379395 5.33435059 13.2840918 5.70092773 14.16015625 6.07861328 C18.684454 8.00071144 23.2477663 9.82373821 27.81396484 11.64355469 C29.09557495 12.15619873 29.09557495 12.15619873 30.40307617 12.67919922 C37.46736929 15.49347052 42.8827895 16.38858491 50.50146484 16.39355469 C51.47019531 16.40580078 52.43892578 16.41804688 53.43701172 16.43066406 C59.25597232 16.44246723 64.23673586 15.87988498 69.81396484 14.20605469 C66.79358829 17.61123883 64.0296179 19.22310216 59.81396484 20.89355469 C58.78271484 21.30992187 57.75146484 21.72628906 56.68896484 22.15527344 C47.9899553 25.33466687 39.5167845 25.19559729 30.89208984 21.73339844 C24.90114386 18.76073362 19.34519668 15.0695513 13.73583984 11.44140625 C4.46454038 5.48195817 -4.13653969 0.62265667 -15.18603516 -0.79394531 C-9.9538308 -3.92723953 -5.43871795 -1.97528599 0 0 Z " fill="#323232" transform="translate(150.18603515625,286.7939453125)"/>
<path d="M0 0 C5.61 0 11.22 0 17 0 C15.47005208 1.7578125 13.94010417 3.515625 12.41015625 5.2734375 C9.87496205 8.37747029 9.87197781 10.43264633 9.8581543 14.37670898 C9.85111984 15.50225693 9.84408539 16.62780487 9.83683777 17.78746033 C9.83267349 19.01130936 9.82850922 20.23515839 9.82421875 21.49609375 C9.80100447 24.08269029 9.7768865 26.66927884 9.75195312 29.25585938 C9.71570513 33.33715714 9.68588151 37.41830897 9.67407227 41.49975586 C9.66193701 45.43631205 9.61822327 49.37226196 9.57421875 53.30859375 C9.57612717 54.5142247 9.57803558 55.71985565 9.58000183 56.96202087 C9.45370825 65.79913967 8.09233153 74.23732895 2.6875 81.5 C-0.46925653 84.4365177 -2.96514383 85.57593312 -7 87 C-6.875 85.25 -6.875 85.25 -6 83 C-4.02053408 81.63636792 -2.0180755 80.30581356 0 79 C5.75981285 73.40475324 7.11455487 65.58254365 7.41992188 57.81933594 C7.45284479 55.54119537 7.46835251 53.26275341 7.46875 50.984375 C7.47636353 49.769776 7.48397705 48.555177 7.49182129 47.30377197 C7.50256969 44.75234015 7.50549698 42.20086452 7.50097656 39.64941406 C7.49999933 35.74730791 7.54178811 31.84713791 7.5859375 27.9453125 C7.59114147 25.45833741 7.59383274 22.97135553 7.59375 20.484375 C7.61014526 19.32178162 7.62654053 18.15918823 7.64343262 16.96136475 C7.68733859 10.1621187 7.68733859 10.1621187 4.58789062 4.34472656 C3.73388672 3.5709668 2.87988281 2.79720703 2 2 C1.34 1.34 0.68 0.68 0 0 Z " fill="#282828" transform="translate(211,197)"/>
<path d="M0 0 C0.66 0.99 1.32 1.98 2 3 C1.56171875 3.58523437 1.1234375 4.17046875 0.671875 4.7734375 C-1.5837322 7.82675944 -3.79858947 10.90754234 -6 14 C-6.77053711 15.07652832 -6.77053711 15.07652832 -7.55664062 16.17480469 C-9.22329021 18.5205695 -10.86371795 20.88297478 -12.5 23.25 C-13.04043945 24.00587402 -13.58087891 24.76174805 -14.13769531 25.54052734 C-17.26630456 30.12479498 -18.95186169 33.2608339 -18 39 C-17.01 40.32 -16.02 41.64 -15 43 C-20.61 43 -26.22 43 -32 43 C-30.35 41.68 -28.7 40.36 -27 39 C-16.37864464 27.45504852 -8.40833882 13.18118816 0 0 Z " fill="#434342" transform="translate(270,242)"/>
<path d="M0 0 C1.56949694 3.13899388 0.03818632 5.93427128 -0.9375 9.125 C-1.618125 11.39375 -2.29875 13.6625 -3 16 C-9.6 16 -16.2 16 -23 16 C-23 15.34 -23 14.68 -23 14 C-22.443125 13.82984375 -21.88625 13.6596875 -21.3125 13.484375 C-12.19430988 10.58873354 -5.80855319 7.83274597 0 0 Z " fill="#2D2D2C" transform="translate(384,269)"/>
<path d="M0 0 C4.95 0 9.9 0 15 0 C13.35 1.65 11.7 3.3 10 5 C8.42281324 7.04186917 6.91284604 9.07592247 5.4375 11.1875 C5.02129395 11.77611816 4.60508789 12.36473633 4.17626953 12.97119141 C-1.37263619 20.87343678 -6.68564805 28.93902803 -12 37 C-12.66 36.34 -13.32 35.68 -14 35 C-13.38741333 34.13834229 -13.38741333 34.13834229 -12.76245117 33.25927734 C-10.89983127 30.63420775 -9.04362627 28.00466461 -7.1875 25.375 C-6.22360352 24.01955078 -6.22360352 24.01955078 -5.24023438 22.63671875 C1.39251123 14.13671325 1.39251123 14.13671325 3 4 C2.01 2.68 1.02 1.36 0 0 Z " fill="#363535" transform="translate(292,197)"/>
<path d="M0 0 C0.33 0 0.66 0 1 0 C1 5.94 1 11.88 1 18 C-0.65 16.35 -2.3 14.7 -4 13 C-7.7802463 10.27353917 -12.25009341 10.55410076 -16.75 10.375 C-17.54277344 10.33632812 -18.33554687 10.29765625 -19.15234375 10.2578125 C-21.10119416 10.163892 -23.05056451 10.08087178 -25 10 C-25 9.34 -25 8.68 -25 8 C-23.84242188 7.96261719 -22.68484375 7.92523438 -21.4921875 7.88671875 C-19.95309439 7.82102575 -18.4140333 7.75457958 -16.875 7.6875 C-15.73417969 7.65366211 -15.73417969 7.65366211 -14.5703125 7.61914062 C-9.713304 7.38885143 -6.21595196 6.65448827 -2 4 C-0.59533047 1.94906855 -0.59533047 1.94906855 0 0 Z " fill="#3E3E3D" transform="translate(364,231)"/>
<path d="M0 0 C5.28 0 10.56 0 16 0 C19.34821429 12.32142857 19.34821429 12.32142857 18 16 C17.443125 15.0925 16.88625 14.185 16.3125 13.25 C11.97890749 7.15954565 6.7367081 4.75926171 0 2 C0 1.34 0 0.68 0 0 Z " fill="#2F2F2F" transform="translate(364,197)"/>
<path d="M0 0 C1.65 0 3.3 0 5 0 C3.68 0.33 2.36 0.66 1 1 C1 1.66 1 2.32 1 3 C2.32 3 3.64 3 5 3 C5.33 2.01 5.66 1.02 6 0 C7.98 0 9.96 0 12 0 C12.59732819 2.76264289 13 5.16032769 13 8 C12.34 8 11.68 8 11 8 C11 7.01 11 6.02 11 5 C10.01 5 9.02 5 8 5 C8 5.99 8 6.98 8 8 C5.36 8 2.72 8 0 8 C0 5.36 0 2.72 0 0 Z " fill="#696866" transform="translate(270,302)"/>
<path d="M0 0 C1.32 0 2.64 0 4 0 C4.886875 -0.020625 5.77375 -0.04125 6.6875 -0.0625 C9 0 9 0 10 1 C10.125 4 10.125 4 10 7 C9 8 9 8 6.6875 8.0625 C5.800625 8.041875 4.91375 8.02125 4 8 C2.68 8 1.36 8 0 8 C0 5.36 0 2.72 0 0 Z " fill="#424241" transform="translate(324,302)"/>
<path d="M0 0 C0.66 0.33 1.32 0.66 2 1 C0.78892602 8.62976607 -1.50250892 15.64716096 -7.94921875 20.453125 C-9.875 21.5625 -9.875 21.5625 -13 23 C-13.33 22.34 -13.66 21.68 -14 21 C-12.51231713 19.43996782 -11.08308086 18.05840719 -9.31640625 16.81640625 C-3.27828438 12.49961979 -1.81960662 6.98457696 0 0 Z " fill="#3D3D3C" transform="translate(218,261)"/>
<path d="M0 0 C2 3 2 3 3 5.0625 C3.95925017 7.16194362 3.95925017 7.16194362 6 9 C1.38 9 -3.24 9 -8 9 C-2.25 2.25 -2.25 2.25 0 0 Z " fill="#242424" transform="translate(249,276)"/>
<path d="M0 0 C2.5 0.125 2.5 0.125 3.5 1.125 C3.625 4.125 3.625 4.125 3.5 7.125 C2.5 8.125 2.5 8.125 0.0625 8.3125 C-2.5 8.125 -2.5 8.125 -4.5 6.125 C-3.77607362 0.18880368 -3.77607362 0.18880368 0 0 Z " fill="#4B4B49" transform="translate(256.5,301.875)"/>
<path d="M0 0 C1.99954746 -0.04254356 4.00041636 -0.04080783 6 0 C7 1 7 1 7.125 4 C7 7 7 7 6 8 C4.00041636 8.04080783 1.99954746 8.04254356 0 8 C0 5.36 0 2.72 0 0 Z " fill="#4B4B4A" transform="translate(261,302)"/>
<path d="M0 0 C0.99 0.33 1.98 0.66 3 1 C3 1.66 3 2.32 3 3 C3.45375 2.505 3.9075 2.01 4.375 1.5 C6 0 6 0 8 0 C8 2.64 8 5.28 8 8 C7.34 8 6.68 8 6 8 C5.67 7.34 5.34 6.68 5 6 C4.34 6 3.68 6 3 6 C2.67 6.66 2.34 7.32 2 8 C1.34 8 0.68 8 0 8 C0 5.36 0 2.72 0 0 Z " fill="#5A5A58" transform="translate(243,302)"/>
<path d="M0 0 C1.32 0.99 2.64 1.98 4 3 C4.33 2.01 4.66 1.02 5 0 C5.66 0 6.32 0 7 0 C7 2.64 7 5.28 7 8 C4 7 4 7 2 4 C1.34 5.32 0.68 6.64 0 8 C0 5.36 0 2.72 0 0 Z " fill="#4C4C4B" transform="translate(336,302)"/>
<path d="M0 0 C0.33 0.99 0.66 1.98 1 3 C2.32 3 3.64 3 5 3 C5 2.01 5 1.02 5 0 C5.66 0 6.32 0 7 0 C7 2.64 7 5.28 7 8 C6.34 8 5.68 8 5 8 C5 7.01 5 6.02 5 5 C3.68 5 2.36 5 1 5 C0.67 5.99 0.34 6.98 0 8 C0 5.36 0 2.72 0 0 Z " fill="#504F4E" transform="translate(316,302)"/>
<path d="M0 0 C2.89932357 2.39509338 3.50168276 4.31245243 4 8 C3.21625 7.814375 2.4325 7.62875 1.625 7.4375 C-0.97089775 6.74037734 -0.97089775 6.74037734 -3 8 C-1.125 1.125 -1.125 1.125 0 0 Z " fill="#4F4F4D" transform="translate(304,302)"/>
<path d="M0 0 C3 1 3 1 5 4 C5.66 2.68 6.32 1.36 7 0 C7 2.64 7 5.28 7 8 C6.34 8 5.68 8 5 8 C3.375 6 3.375 6 2 4 C1.34 5.32 0.68 6.64 0 8 C0 5.36 0 2.72 0 0 Z " fill="#373737" transform="translate(284,302)"/>
<path d="M0 0 C0 2.64 0 5.28 0 8 C-0.66 7.67 -1.32 7.34 -2 7 C-2 5.68 -2 4.36 -2 3 C-3.32 3 -4.64 3 -6 3 C-6 2.34 -6 1.68 -6 1 C-3.92446352 0.4465236 -2.15634036 0 0 0 Z " fill="#C6C5BF" transform="translate(316,302)"/>
<path d="M0 0 C1.98 0 3.96 0 6 0 C4.68 0.33 3.36 0.66 2 1 C2 1.66 2 2.32 2 3 C2.99 3.33 3.98 3.66 5 4 C4.01 4 3.02 4 2 4 C2 5.32 2 6.64 2 8 C1.34 8 0.68 8 0 8 C0 5.36 0 2.72 0 0 Z " fill="#50504E" transform="translate(295,302)"/>
<path d="M0 0 C1.98 0.495 1.98 0.495 4 1 C4 2.32 4 3.64 4 5 C2.35 4.67 0.7 4.34 -1 4 C-0.67 2.68 -0.34 1.36 0 0 Z " fill="#EEECE5" transform="translate(329,303)"/>
<path d="M0 0 C1.98 0.495 1.98 0.495 4 1 C3.67 2.32 3.34 3.64 3 5 C1.68 5 0.36 5 -1 5 C-0.67 3.35 -0.34 1.7 0 0 Z " fill="#ECEAE4" transform="translate(255,303)"/>
<path d="M0 0 C0.66 0.99 1.32 1.98 2 3 C0.02 5.64 -1.96 8.28 -4 11 C-4.66 10.67 -5.32 10.34 -6 10 C-4.02 6.7 -2.04 3.4 0 0 Z " fill="#3D3C3B" transform="translate(270,242)"/>
<path d="M0 0 C0.66 0 1.32 0 2 0 C2.79953138 3.28696233 3.09658936 4.71023192 2 8 C1.34 8 0.68 8 0 8 C0 5.36 0 2.72 0 0 Z " fill="#706F6D" transform="translate(324,302)"/>
<path d="M0 0 C1.32 0.33 2.64 0.66 4 1 C4 2.32 4 3.64 4 5 C2.68 5 1.36 5 0 5 C0 3.35 0 1.7 0 0 Z " fill="#F5F3ED" transform="translate(263,303)"/>
<path d="M0 0 C0.33 0.99 0.66 1.98 1 3 C3.01508358 3.73323796 3.01508358 3.73323796 5 4 C5 4.66 5 5.32 5 6 C3.35 6.33 1.7 6.66 0 7 C-1.125 2.25 -1.125 2.25 0 0 Z " fill="#D9D7D1" transform="translate(308,303)"/>
</svg>
